# xmcd
#
# Track frame offsets:
# 150
# 16040
# 35145
# 53835
# 69342
# 88900
# 105377
# 129407
# 154557
# 176264
# 195701
# 215066
# 233981
# 251538
# 267284
# 284528
# 310298
#
# Disc length: 4362 seconds
#
#
# Revision: 0
# Processed by: cddbd v1.5.1PL2 Copyright (c) Steve Scherf et al.
# Submitted via: FreeRIP 2.945 
#
DISCID=ec110811
DTITLE=Various Artist - Celine Dion   A New Day Has Come
DYEAR=2002
DGENRE=Pop
TTITLE0=Celine Dion - I'm Alive (Album Version)
TTITLE1=Celine Dion - Right In Front Of You (Album Version)
TTITLE2=Celine Dion - Have You Ever Been In Love (Album Version)
TTITLE3=Celine Dion - Rain, Tax (It's Inevitable) (Album Version)
TTITLE4=Celine Dion - A New Day Has Come (Radio Remix)
TTITLE5=Celine Dion - Ten Days (Album Version)
TTITLE6=Celine Dion - Goodbye's (The Saddest Word) (Album Version)
TTITLE7=Celine Dion - Prayer (Album Version)
TTITLE8=Celine Dion - I Surrender (Album Version)
TTITLE9=Celine Dion - At Last (Album Version)
TTITLE10=Celine Dion - Super Love (Album Version)
TTITLE11=Celine Dion - Sorry For Love (Album Version)
TTITLE12=Celine Dion - Aun Existe Amor (Album Version)
TTITLE13=Celine Dion - The Greatest Reward (Album Version)
TTITLE14=Celine Dion - When The Wrong One Loves You Right (Album Version)
TTITLE15=Celine Dion - A New Day Has Come (Album Version)
TTITLE16=Celine Dion - Nature Boy (Album Version)
EXTD=
EXTT0=
EXTT1=
EXTT2=
EXTT3=
EXTT4=
EXTT5=
EXTT6=
EXTT7=
EXTT8=
EXTT9=
EXTT10=
EXTT11=
EXTT12=
EXTT13=
EXTT14=
EXTT15=
EXTT16=
PLAYORDER=
